<svg width="186" height="29" viewBox="0 0 186 29" fill="none" xmlns="http://www.w3.org/2000/svg">
<path d="M6.636 14.638H17.618V19.84H6.636V14.638ZM7.112 28H0.38V4.2H19.046V9.402H7.112V28ZM30.242 28.306C28.746 28.306 27.3973 28.0113 26.196 27.422C25.0173 26.8327 24.088 25.9147 23.408 24.668C22.7507 23.3987 22.422 21.8007 22.422 19.874V9.572H28.882V18.82C28.882 20.248 29.1427 21.268 29.664 21.88C30.208 22.492 30.9673 22.798 31.942 22.798C32.5767 22.798 33.1547 22.6507 33.676 22.356C34.1973 22.0613 34.6167 21.5967 34.934 20.962C35.2513 20.3047 35.41 19.466 35.41 18.446V9.572H41.87V28H35.716V22.798L36.906 24.26C36.2713 25.62 35.3533 26.64 34.152 27.32C32.9507 27.9773 31.6473 28.306 30.242 28.306ZM47.031 28V9.572H53.185V14.944L52.267 13.414C52.811 12.0313 53.695 11 54.919 10.32C56.143 9.61733 57.6277 9.266 59.373 9.266V15.08C59.0784 15.0347 58.8177 15.012 58.591 15.012C58.387 14.9893 58.1604 14.978 57.911 14.978C56.5964 14.978 55.531 15.3407 54.715 16.066C53.899 16.7687 53.491 17.9247 53.491 19.534V28H47.031ZM75.0408 9.266C76.4688 9.266 77.7608 9.56067 78.9168 10.15C80.0728 10.7167 80.9795 11.6007 81.6368 12.802C82.3168 14.0033 82.6568 15.556 82.6568 17.46V28H76.1968V18.514C76.1968 17.1993 75.9248 16.2473 75.3808 15.658C74.8595 15.046 74.1228 14.74 73.1708 14.74C72.4908 14.74 71.8675 14.8987 71.3008 15.216C70.7342 15.5107 70.2922 15.9753 69.9748 16.61C69.6575 17.2447 69.4988 18.072 69.4988 19.092V28H63.0388V9.572H69.1928V14.808L68.0028 13.278C68.7055 11.9407 69.6688 10.9433 70.8928 10.286C72.1168 9.606 73.4995 9.266 75.0408 9.266ZM87.7127 28V9.572H94.1727V28H87.7127ZM90.9427 7.532C89.764 7.532 88.812 7.20333 88.0867 6.546C87.3613 5.88867 86.9987 5.07267 86.9987 4.098C86.9987 3.12333 87.3613 2.30733 88.0867 1.65C88.812 0.992666 89.764 0.663999 90.9427 0.663999C92.1213 0.663999 93.0733 0.981333 93.7987 1.616C94.524 2.228 94.8867 3.02133 94.8867 3.996C94.8867 5.016 94.524 5.866 93.7987 6.546C93.096 7.20333 92.144 7.532 90.9427 7.532ZM107.599 28.306C105.242 28.306 103.406 27.728 102.091 26.572C100.776 25.3933 100.119 23.6253 100.119 21.268V5.458H106.579V21.2C106.579 21.8573 106.76 22.3787 107.123 22.764C107.486 23.1267 107.95 23.308 108.517 23.308C109.288 23.308 109.945 23.1153 110.489 22.73L112.087 27.252C111.543 27.6147 110.874 27.8753 110.081 28.034C109.288 28.2153 108.46 28.306 107.599 28.306ZM97.4329 15.08V10.252H110.795V15.08H97.4329ZM123.33 28.306C121.834 28.306 120.485 28.0113 119.284 27.422C118.105 26.8327 117.176 25.9147 116.496 24.668C115.839 23.3987 115.51 21.8007 115.51 19.874V9.572H121.97V18.82C121.97 20.248 122.231 21.268 122.752 21.88C123.296 22.492 124.055 22.798 125.03 22.798C125.665 22.798 126.243 22.6507 126.764 22.356C127.285 22.0613 127.705 21.5967 128.022 20.962C128.339 20.3047 128.498 19.466 128.498 18.446V9.572H134.958V28H128.804V22.798L129.994 24.26C129.359 25.62 128.441 26.64 127.24 27.32C126.039 27.9773 124.735 28.306 123.33 28.306ZM140.119 28V9.572H146.273V14.944L145.355 13.414C145.899 12.0313 146.783 11 148.007 10.32C149.231 9.61733 150.716 9.266 152.461 9.266V15.08C152.166 15.0347 151.906 15.012 151.679 15.012C151.475 14.9893 151.248 14.978 150.999 14.978C149.684 14.978 148.619 15.3407 147.803 16.066C146.987 16.7687 146.579 17.9247 146.579 19.534V28H140.119ZM165.617 28.306C163.441 28.306 161.537 27.898 159.905 27.082C158.295 26.2433 157.037 25.11 156.131 23.682C155.247 22.2313 154.805 20.588 154.805 18.752C154.805 16.916 155.235 15.284 156.097 13.856C156.981 12.4053 158.193 11.2833 159.735 10.49C161.276 9.674 163.01 9.266 164.937 9.266C166.75 9.266 168.405 9.64 169.901 10.388C171.397 11.1133 172.587 12.19 173.471 13.618C174.355 15.046 174.797 16.78 174.797 18.82C174.797 19.0467 174.785 19.3073 174.763 19.602C174.74 19.8967 174.717 20.1687 174.695 20.418H160.109V17.018H171.261L168.813 17.97C168.835 17.1313 168.677 16.406 168.337 15.794C168.019 15.182 167.566 14.706 166.977 14.366C166.41 14.026 165.741 13.856 164.971 13.856C164.2 13.856 163.52 14.026 162.931 14.366C162.364 14.706 161.922 15.1933 161.605 15.828C161.287 16.44 161.129 17.1653 161.129 18.004V18.99C161.129 19.8967 161.31 20.6787 161.673 21.336C162.058 21.9933 162.602 22.5033 163.305 22.866C164.007 23.206 164.846 23.376 165.821 23.376C166.727 23.376 167.498 23.2513 168.133 23.002C168.79 22.73 169.436 22.322 170.071 21.778L173.471 25.314C172.587 26.2887 171.499 27.0367 170.207 27.558C168.915 28.0567 167.385 28.306 165.617 28.306ZM181.495 28.306C180.407 28.306 179.489 27.9433 178.741 27.218C177.993 26.4927 177.619 25.5747 177.619 24.464C177.619 23.308 177.993 22.39 178.741 21.71C179.489 21.0073 180.407 20.656 181.495 20.656C182.583 20.656 183.501 21.0073 184.249 21.71C184.997 22.39 185.371 23.308 185.371 24.464C185.371 25.5747 184.997 26.4927 184.249 27.218C183.501 27.9433 182.583 28.306 181.495 28.306Z" fill="#282A30"/>
</svg>
